<?xml version="1.0" encoding="utf-8"?>


<!-- The icon can be used freely in both personal and commercial projects with no attribution required, but always appreciated. 
You may NOT sub-license, resell, rent, redistribute or otherwise transfer the icon without express written permission from iconmonstr.com -->


<!DOCTYPE svg PUBLIC "-//W3C//DTD SVG 1.1//EN" "http://www.w3.org/Graphics/SVG/1.1/DTD/svg11.dtd">

<svg version="1.1" xmlns="http://www.w3.org/2000/svg" xmlns:xlink="http://www.w3.org/1999/xlink" x="0px" y="0px"

	 width="512px" height="512px" viewBox="0 0 512 512" enable-background="new 0 0 512 512" xml:space="preserve">

<path id="help-2-icon" d="M256,50C142.229,50,50,142.229,50,256s92.229,206,206,206s206-92.229,206-206S369.771,50,256,50z

	 M258.25,392.9c-16.162,0-29.27-13.107-29.27-29.275c0-16.16,13.107-29.263,29.27-29.263c16.166,0,29.27,13.103,29.27,29.263

	C287.52,379.793,274.416,392.9,258.25,392.9z M281.262,306.385v5.266c0,0-43.883,0-48.248,0v-5.266

	c0-14.898,2.174-34.012,19.471-50.628c17.299-16.619,38.916-30.346,38.916-51.106c0-22.95-15.928-35.09-36.01-35.09

	c-33.463,0-35.65,34.705-36.475,42.347h-46.928c1.25-36.189,16.545-86.808,83.684-86.808c58.182,0,84.34,38.967,84.34,75.508

	C340.012,258.77,281.262,268.873,281.262,306.385z"/>

</svg>

